<svg width="515" height="444" viewBox="0 0 515 444" fill="none" xmlns="http://www.w3.org/2000/svg">
<path d="M313.075 87.4014L500.344 210.485L262.552 219.669L75.2398 98.9007L313.075 87.4014Z" fill="#1C1C84"/>
<path d="M500.344 210.485L498.256 215.096L258.331 228.605L73.2413 103.315L75.2398 98.9007L262.552 219.669L500.344 210.485Z" fill="#2525AD"/>
<path d="M375.951 285.618L369.764 307.509C369.764 307.509 256.873 336.474 154.904 250.941L160.365 234.12C255.758 298.102 335.864 294.075 375.951 285.618Z" fill="#2525AD"/>
<path d="M81.2498 282.217C95.9342 278.542 109.31 269.372 118.975 257.728C119.691 256.864 120.846 257.817 120.617 258.732C121.01 258.515 121.524 258.692 121.827 259.078C122.327 258.479 123.583 258.67 123.636 259.692C124.546 277.404 111.48 291.031 100.092 302.989C99.1976 303.93 98.2337 302.768 99.1316 301.826C108.044 292.466 117.833 281.899 120.773 269.119C115.387 284.522 103.585 297.452 89.2235 305.108C88.1863 305.66 87.6339 304.184 88.6768 303.626C101.715 296.675 112.085 285.058 117.735 271.415C115.084 276.597 111.872 281.507 107.915 285.734C101.854 292.209 94.2065 297.548 86.7933 302.355C85.7025 303.064 85.1593 301.58 86.2489 300.874C93.3734 296.252 100.143 290.887 106.06 284.756C108.596 282.13 110.815 279.179 112.791 276.062C105.419 285.701 95.6309 293.47 84.4297 298.303C83.2512 298.812 82.5563 297.572 83.75 297.057C96.0241 291.761 106.171 282.46 113.591 271.483C105.539 281.264 95.2195 289.29 83.7918 295.024C82.6364 295.604 82.3134 294.262 83.4805 293.675C94.6354 288.078 104.043 279.887 111.919 270.354C102.863 279.766 92.8005 288.245 80.0679 292.089C78.8199 292.466 78.2533 291.119 79.4978 290.743C88.2433 288.101 95.7228 282.572 102.449 276.676C95.8582 281.51 88.721 285.585 81.143 288.758C79.9439 289.259 79.888 287.572 81.0729 287.076C87.7397 284.286 93.5971 280.504 99.4861 276.367C93.9724 279.41 88.0882 281.79 81.948 283.326C80.6917 283.644 79.9851 282.534 81.2498 282.217Z" fill="#F0C64B"/>
<path d="M170.49 135.646C176.98 132.522 184.165 131.79 191.269 131.603C205.397 131.234 219.37 134.619 233.003 137.93C252.272 142.609 271.836 147.721 291.656 143.223C292.426 143.048 292.881 143.518 293.011 144.109C293.029 144.149 293.033 144.192 293.044 144.232C293.046 144.253 293.053 144.268 293.055 144.29C293.212 144.888 293.025 145.56 292.27 145.824C276.776 151.262 260 149.832 244.135 146.99C228.103 144.117 212.294 139.962 195.94 139.443C195.432 139.427 194.924 139.411 194.416 139.394C194.318 139.391 193.769 139.394 193.766 139.389C192.906 139.413 192.049 139.449 191.19 139.479C188.034 139.589 184.926 139.776 181.816 140.367C178.088 141.075 174.366 142.325 171.209 144.462C167.756 146.8 165.423 150.117 163.792 153.914C162.094 157.865 161.057 162.089 159.948 166.233C158.798 170.525 157.578 174.798 156.382 179.075C153.909 187.921 151.346 196.732 148.474 205.455C142.148 224.659 134.229 243.582 122.695 260.29C121.839 261.529 119.706 260.207 120.432 258.874C129.532 242.181 135.963 224.226 141.285 206.016C143.933 196.954 146.31 187.81 148.656 178.664C150.859 170.079 152.641 161.228 155.635 152.875C158.35 145.3 163.164 139.173 170.49 135.646Z" fill="#F0C64B"/>
<path d="M123.02 262.005C122.857 261.809 122.687 261.621 122.514 261.434C122.409 261.325 122.412 261.329 122.532 261.448C122.478 261.397 122.429 261.345 122.374 261.297C122.294 261.223 122.213 261.148 122.132 261.076C121.736 260.728 121.314 260.413 120.868 260.13C120.762 260.061 120.654 259.989 120.543 259.93C120.856 260.092 120.49 259.906 120.429 259.872C120.203 259.756 119.972 259.645 119.739 259.546C119.506 259.446 119.27 259.354 119.029 259.271C118.91 259.232 118.788 259.191 118.667 259.154C118.597 259.134 118.528 259.111 118.457 259.094C118.63 259.137 118.641 259.139 118.491 259.103C118.124 259.013 117.82 258.896 117.58 258.586C117.383 258.33 117.258 257.934 117.312 257.607C117.417 256.961 118.076 256.25 118.808 256.43C121.308 257.043 123.512 258.369 125.159 260.364C125.609 260.91 125.493 261.843 124.91 262.252C124.296 262.685 123.5 262.588 123.02 262.005Z" fill="#D8A32B"/>
<path d="M124.35 259.722C124.187 259.525 124.017 259.338 123.844 259.151C123.738 259.042 123.742 259.046 123.861 259.165C123.808 259.114 123.757 259.065 123.704 259.014C123.623 258.94 123.543 258.865 123.461 258.793C123.066 258.445 122.644 258.128 122.198 257.847C122.091 257.778 121.984 257.706 121.873 257.647C122.186 257.809 121.819 257.623 121.758 257.589C121.533 257.473 121.302 257.362 121.069 257.263C120.836 257.163 120.597 257.07 120.358 256.99C120.236 256.95 120.116 256.91 119.995 256.873C119.925 256.853 119.855 256.833 119.785 256.813C119.959 256.857 119.972 256.86 119.819 256.823C119.453 256.733 119.149 256.616 118.909 256.305C118.712 256.049 118.585 255.65 118.641 255.326C118.746 254.681 119.405 253.967 120.137 254.149C122.639 254.764 124.841 256.088 126.488 258.083C126.935 258.628 126.821 259.565 126.239 259.972C125.625 260.402 124.832 260.306 124.35 259.722Z" fill="#D8A32B"/>
<path d="M176.131 183.155L178.74 174.728L258.331 228.605L392.657 221.041L388.914 235.503L255.336 240.995L176.131 183.155Z" fill="#0C0C5B"/>
<path d="M255.336 240.994L388.916 235.504L375.951 285.618C335.864 294.075 255.758 298.102 160.363 234.122L176.133 183.156L255.336 240.994Z" fill="#1C1C84"/>
</svg>
