<svg width="250" height="276" viewBox="0 0 250 276" fill="none" xmlns="http://www.w3.org/2000/svg">
<path d="M136.343 1.73624e-05L0 78.5175L113.491 275.591L249.834 197.074L136.343 1.73624e-05Z" fill="#D5CBFB"/>
<path d="M138.271 37.381L31.3623 98.948L33.8744 103.31L140.783 41.7431L138.271 37.381Z" fill="#7B70EE"/>
<path d="M149.802 57.404L42.8936 118.971L45.4056 123.333L152.315 61.7661L149.802 57.404Z" fill="#7B70EE"/>
<path d="M161.334 77.4293L54.4248 138.996L56.9369 143.358L163.846 81.7914L161.334 77.4293Z" fill="#7B70EE"/>
<path d="M172.864 97.4523L65.9551 159.019L68.4672 163.381L175.376 101.814L172.864 97.4523Z" fill="#7B70EE"/>
<path d="M184.395 117.475L77.4863 179.042L79.9984 183.404L186.907 121.837L184.395 117.475Z" fill="#7B70EE"/>
<path d="M195.927 137.501L89.0186 199.068L91.5306 203.43L198.44 141.863L195.927 137.501Z" fill="#7B70EE"/>
<path d="M223.94 186.139L117.031 247.707L117.723 248.908L224.632 187.341L223.94 186.139Z" fill="white"/>
<path d="M120.74 220.37C126.73 218.143 132.434 215.224 137.678 211.565C142.523 208.184 147.444 204.207 151.073 199.508C153.656 196.162 155.145 190.214 150.543 187.718C146.489 185.518 141.036 188.196 138.032 191.027C134.53 194.33 132.449 199.066 131.891 203.803C131.332 208.544 132.369 214.318 137.359 216.225C141.97 217.986 147.297 215.803 150.962 212.957C153.02 211.358 154.774 209.362 156.08 207.102C156.689 206.046 157.176 204.932 157.599 203.791C158.154 202.303 158.596 200.497 159.915 199.474C161.497 198.243 162.642 199.317 164.276 199.623C165.412 199.836 166.516 199.492 167.44 198.829C168.578 198.01 169.377 196.856 170.248 195.78C171.344 194.422 172.62 193.416 174.151 192.58C180.743 188.99 187.796 186.078 194.583 182.873C195.793 182.3 195.166 181.223 193.961 181.792C188.908 184.179 183.44 185.847 178.389 188.236C176.083 189.326 173.624 190.292 171.516 191.747C169.535 193.115 168.486 195.155 166.741 196.728C164.779 198.494 163.176 196.424 160.988 196.766C159.046 197.073 157.592 198.594 156.756 200.286C155.735 202.349 155.215 204.57 153.993 206.549C152.622 208.764 150.749 210.701 148.572 212.137C145.044 214.464 138.959 216.484 135.699 212.604C132.724 209.065 133.654 203.107 135.165 199.138C136.718 195.06 139.759 191.2 143.98 189.7C145.989 188.988 148.853 188.476 150.471 190.256C152.359 192.335 151.362 195.464 149.992 197.497C148.392 199.872 146.138 201.912 144.039 203.836C141.708 205.971 139.243 207.951 136.649 209.761C131.562 213.308 126.317 216.675 120.503 218.834C119.25 219.3 119.485 220.838 120.74 220.37Z" fill="#7B70EE"/>
</svg>
