<svg width="212" height="245" viewBox="0 0 212 245" fill="none" xmlns="http://www.w3.org/2000/svg">
<path d="M115.805 34.3784L84.3521 35.1839L83.9226 18.1479C83.829 14.4611 86.7437 11.3957 90.4316 11.3005L108.529 10.8384C112.217 10.7431 115.282 13.6556 115.375 17.3424L115.805 34.3784Z" fill="#D5CBFB"/>
<path d="M115.851 38.3689L84.3975 39.1729L88.6054 206.562L120.059 205.758L115.851 38.3689Z" fill="#2525AD"/>
<path d="M105.732 38.642L94.499 38.9291L98.7069 206.318L109.94 206.031L105.732 38.642Z" fill="#1C1C84"/>
<path d="M119.4 30.7537L80.46 31.7491L80.6491 39.2742L119.59 38.2787L119.4 30.7537Z" fill="#F0C64B"/>
<path d="M120.112 205.805L88.6588 206.611L98.7431 229.744L111.203 229.426L120.112 205.805Z" fill="#D5CBFB"/>
<path d="M111.204 229.427L98.7434 229.745L105.358 244.919L111.204 229.427Z" fill="#2525AD"/>
</svg>
