<svg width="434" height="291" viewBox="0 0 434 291" fill="none" xmlns="http://www.w3.org/2000/svg">
<path d="M221.362 0L0 34.8959L212.839 141.332L433.287 108.563L221.362 0Z" fill="#1C1C84"/>
<path d="M0 34.8959V39.9576L212.999 151.213L433.287 113.409V108.563L212.839 141.332L0 34.8959Z" fill="#2525AD"/>
<path d="M82.3345 154.644L78.9424 177.137C78.9424 177.137 169.84 250.082 298.009 214.216L299.971 196.64C186.681 215.586 115.365 178.88 82.3345 154.644Z" fill="#2525AD"/>
<path d="M352.208 273.085C340.347 263.681 331.943 249.81 327.941 235.217C327.645 234.135 326.199 234.527 326.031 235.454C325.762 235.095 325.22 235.044 324.786 235.27C324.578 234.519 323.354 234.175 322.884 235.084C314.751 250.845 321.034 268.647 326.477 284.237C326.903 285.463 328.261 284.802 327.831 283.574C323.572 271.371 319.012 257.708 321.604 244.853C320.159 261.107 325.578 277.752 335.504 290.65C336.221 291.581 337.333 290.464 336.613 289.525C327.602 277.816 322.946 262.956 323.426 248.198C323.703 254.011 324.604 259.808 326.466 265.291C329.317 273.69 334.082 281.708 338.853 289.144C339.554 290.24 340.661 289.112 339.96 288.02C335.376 280.871 331.421 273.192 328.559 265.166C327.333 261.728 326.527 258.124 326.013 254.47C328.754 266.291 334.466 277.406 342.677 286.428C343.541 287.377 344.685 286.535 343.811 285.573C334.813 275.687 329.405 263.028 327.173 249.968C330.474 262.199 336.565 273.767 344.611 283.704C345.424 284.709 346.272 283.619 345.451 282.603C337.597 272.904 332.405 261.562 329.162 249.629C333.53 261.938 339.2 273.813 349.214 282.566C350.195 283.424 351.267 282.43 350.288 281.574C343.411 275.561 338.877 267.44 335.181 259.294C339.192 266.416 344.013 273.072 349.608 279.088C350.494 280.039 351.24 278.525 350.366 277.584C345.443 272.293 341.667 266.432 338.008 260.235C341.776 265.281 346.155 269.876 351.115 273.807C352.128 274.615 353.23 273.895 352.208 273.085Z" fill="#F0C64B"/>
<path d="M331.36 102.755C326.735 97.2326 320.492 93.6023 314.097 90.5024C301.379 84.3399 287.253 81.6611 273.469 79.0543C253.985 75.3706 234.054 71.9589 217.853 59.6872C217.224 59.2101 216.615 59.45 216.253 59.9351C216.221 59.9644 216.199 60.0017 216.173 60.0337C216.162 60.0524 216.149 60.063 216.138 60.0817C215.749 60.5615 215.642 61.2518 216.221 61.8036C228.093 73.1477 243.966 78.7637 259.591 82.7166C275.381 86.7121 291.496 89.4468 306.609 95.7186C307.078 95.9132 307.548 96.1078 308.017 96.3024C308.108 96.3397 308.606 96.5689 308.612 96.5663C309.385 96.9421 310.151 97.3285 310.921 97.7097C313.751 99.1117 316.505 100.564 319.095 102.385C322.199 104.568 325.074 107.241 327.069 110.491C329.25 114.044 330.007 118.028 329.927 122.16C329.845 126.459 329.047 130.734 328.349 134.967C327.626 139.352 326.975 143.747 326.301 148.137C324.906 157.216 323.607 166.299 322.626 175.431C320.468 195.534 319.879 216.039 323.495 236.017C323.764 237.499 326.253 237.174 326.141 235.66C324.735 216.7 326.282 197.69 328.943 178.907C330.269 169.559 331.874 160.249 333.509 150.949C335.042 142.22 337.069 133.421 337.786 124.577C338.437 116.557 336.578 108.99 331.36 102.755Z" fill="#F0C64B"/>
<path d="M322.492 237.445C322.721 237.333 322.953 237.232 323.188 237.134C323.329 237.078 323.324 237.08 323.166 237.139C323.236 237.115 323.302 237.088 323.372 237.067C323.476 237.032 323.58 236.998 323.684 236.966C324.188 236.811 324.702 236.699 325.225 236.624C325.35 236.606 325.478 236.584 325.604 236.576C325.252 236.595 325.662 236.576 325.732 236.571C325.985 236.558 326.241 236.552 326.494 236.558C326.748 236.563 327.001 236.576 327.254 236.6C327.38 236.614 327.508 236.627 327.633 236.643C327.705 236.654 327.777 236.662 327.849 236.675C327.673 236.643 327.662 236.64 327.814 236.67C328.185 236.739 328.511 236.758 328.857 236.574C329.143 236.422 329.42 236.113 329.505 235.793C329.676 235.161 329.369 234.242 328.628 234.103C326.097 233.631 323.542 233.93 321.22 235.068C320.585 235.38 320.305 236.278 320.668 236.891C321.049 237.539 321.814 237.779 322.492 237.445Z" fill="#D8A32B"/>
<path d="M322.223 234.817C322.452 234.705 322.684 234.604 322.919 234.505C323.06 234.449 323.055 234.452 322.897 234.511C322.967 234.487 323.033 234.463 323.103 234.439C323.207 234.404 323.311 234.369 323.415 234.337C323.919 234.183 324.433 234.068 324.956 233.996C325.081 233.978 325.209 233.956 325.335 233.948C324.983 233.967 325.393 233.948 325.463 233.943C325.716 233.93 325.972 233.924 326.225 233.93C326.479 233.935 326.735 233.948 326.985 233.975C327.113 233.988 327.239 234.002 327.364 234.018C327.436 234.028 327.508 234.039 327.58 234.05C327.404 234.018 327.391 234.015 327.545 234.044C327.916 234.114 328.241 234.132 328.588 233.948C328.873 233.796 329.154 233.485 329.236 233.167C329.407 232.536 329.1 231.613 328.359 231.478C325.825 231.006 323.273 231.304 320.95 232.442C320.318 232.754 320.036 233.655 320.398 234.265C320.78 234.91 321.542 235.15 322.223 234.817Z" fill="#D8A32B"/>
<path d="M306.627 143.71L307.726 134.957L212.999 151.213L93.7482 88.9244L91.1934 103.643L210.618 163.735L306.627 143.71Z" fill="#0C0C5B"/>
<path d="M210.618 163.735L91.1914 103.643L82.335 154.644C115.366 178.88 186.681 215.586 299.972 196.643L306.625 143.71L210.618 163.735Z" fill="#1C1C84"/>
</svg>
