<svg width="881" height="901" viewBox="0 0 881 901" fill="none" xmlns="http://www.w3.org/2000/svg">
<path d="M78.4634 464.37C115.014 505.726 161.277 521.795 184.092 572.044C199.732 606.488 192.395 647.266 203.95 683.284C219.787 732.652 271.821 765.817 323.691 765.995C375.561 766.173 425.004 736.8 455.783 695.071C465.877 681.385 474.627 665.998 488.777 656.562C509.043 643.049 535.332 644.786 559.596 642.624C619.426 637.296 676.125 603.716 709.533 553.822C709.533 553.822 796.199 451.613 734.847 305.392C717.014 262.891 688.106 223.858 648.244 200.697C608.381 177.534 539.015 176.983 497.971 197.984C454.333 220.312 425.321 269.25 377.491 280C349.767 286.23 321.144 278.134 293.226 272.838C254.063 265.407 214.143 260.792 174.599 265.811C128.057 271.718 81.1108 295.044 59.4001 347.486C51.7964 365.852 49.2408 386.001 52.2719 405.646C54.9877 423.264 61.8566 445.579 78.4634 464.37Z" fill="#F5F5FF"/>
<path d="M438.132 162.37C428.071 149.746 412.398 142.856 396.724 138.973C375.098 133.616 351.842 133.204 330.864 140.705C309.886 148.206 291.486 164.195 283.751 185.08C276.015 205.964 280.278 231.496 296.329 246.942C305.323 255.597 317.953 260.252 330.371 260.218C337.735 261.003 345.257 260.175 352.179 257.511C367.579 251.581 378.896 238.122 393.664 230.758C409.714 222.757 430.343 221.479 441.204 207.215C450.983 194.372 448.192 174.994 438.132 162.37Z" fill="#F5F5FF"/>
<path d="M148.782 609.743C147.106 606.31 145.546 602.836 144.527 599.16C141.265 587.388 143.635 573.961 137.31 563.508C129.368 550.38 109.804 547.984 96.4947 555.626C83.1855 563.269 75.5746 578.22 72.3293 593.214C70.3302 602.449 69.7485 612.284 72.9128 621.185C76.594 631.538 84.9667 639.582 94.0958 645.699C104.246 652.499 116.1 657.491 128.314 657.077C133.753 656.893 139.235 655.451 144.073 652.926C147.887 651.27 151.273 648.71 153.603 645.391C155.296 643.386 156.725 641.161 157.769 638.705C162.108 628.501 158.194 615.072 148.782 609.743Z" fill="#F5F5FF"/>
<path d="M630.043 608.869H248.706C245.127 608.869 242.199 605.943 242.199 602.366V357.81C242.199 354.233 245.127 351.306 248.706 351.306H630.043C633.622 351.306 636.55 354.233 636.55 357.81V602.366C636.55 605.943 633.622 608.869 630.043 608.869Z" fill="#7B70EE"/>
<path d="M626.789 370.036H251.96V583.892H626.789V370.036Z" fill="#D5CBFB"/>
<path d="M441.732 359.903C441.732 361.204 440.676 362.257 439.374 362.257C438.072 362.257 437.019 361.203 437.019 359.903C437.019 358.602 438.074 357.547 439.374 357.547C440.676 357.549 441.732 358.602 441.732 359.903Z" fill="#D5CBFB"/>
<path d="M689.626 692.909L641.188 615.855C638.454 611.507 633.676 608.868 628.538 608.868H430.931H420H250.213C245.075 608.868 240.297 611.507 237.563 615.855L189.124 692.909C187.753 695.09 187.265 697.683 187.694 700.186H691.055C691.483 697.684 690.997 695.09 689.626 692.909Z" fill="#D5CBFB"/>
<path d="M187.694 700.188C187.782 700.705 187.896 701.218 188.063 701.722L188.827 704.011C190.242 708.254 194.213 711.114 198.687 711.114H419.998H430.93H680.06C684.533 711.114 688.506 708.252 689.92 704.011L690.684 701.722C690.851 701.218 690.965 700.703 691.053 700.188H187.694Z" fill="#7B70EE"/>
<path d="M268.439 646.894L270.798 641.708H259.126L256.628 646.894H268.439Z" fill="#7B70EE"/>
<path d="M289 632.13L290.159 629.424L291.219 626.942H279.925L277.566 632.13H289Z" fill="#7B70EE"/>
<path d="M273.21 641.708L270.852 646.894H282.688L284.905 641.708H273.21Z" fill="#7B70EE"/>
<path d="M271.796 639.512L274.155 634.324H262.683L260.183 639.512H271.796Z" fill="#7B70EE"/>
<path d="M509.443 626.942L510.749 632.13H520.785L519.341 626.942H509.443Z" fill="#7B70EE"/>
<path d="M329.355 641.708L327.77 646.894H339.703L341.22 641.708H329.355Z" fill="#7B70EE"/>
<path d="M315.399 641.708L313.532 646.894H325.474L327.059 641.708H315.399Z" fill="#7B70EE"/>
<path d="M301.379 641.708L299.3 646.894H311.197L313.065 641.708H301.379Z" fill="#7B70EE"/>
<path d="M287.293 641.708L285.076 646.894H296.934L299.012 641.708H287.293Z" fill="#7B70EE"/>
<path d="M521.621 626.942L523.066 632.13H532.443L530.925 626.942H521.621Z" fill="#7B70EE"/>
<path d="M369.715 634.324L368.409 639.512H377.846L379.011 634.324H369.715Z" fill="#7B70EE"/>
<path d="M472.102 626.942L472.984 632.13H483.875L482.85 626.942H472.102Z" fill="#7B70EE"/>
<path d="M368.002 632.13L369.308 626.942H359.409L357.963 632.13H368.002Z" fill="#7B70EE"/>
<path d="M355.683 632.13L357.129 626.942H347.826L346.307 632.13H355.683Z" fill="#7B70EE"/>
<path d="M379.505 632.13L380.67 626.942H371.571L370.268 632.13H379.505Z" fill="#7B70EE"/>
<path d="M533.214 626.942L534.73 632.13H546.466L544.877 626.942H533.214Z" fill="#7B70EE"/>
<path d="M320.714 626.942L318.846 632.13H329.989L330.808 629.453L331.575 626.942H320.714Z" fill="#7B70EE"/>
<path d="M316.512 632.13L318.38 626.942H307.293L305.216 632.13H316.512Z" fill="#7B70EE"/>
<path d="M293.609 626.942L291.39 632.13H302.85L303.931 629.43L304.926 626.942H293.609Z" fill="#7B70EE"/>
<path d="M498.081 626.942L499.244 632.13H508.483L507.177 626.942H498.081Z" fill="#7B70EE"/>
<path d="M485.089 626.942L486.113 632.13H496.993L495.829 626.942H485.089Z" fill="#7B70EE"/>
<path d="M344.018 632.13L345.537 626.942H333.872L332.285 632.13H344.018Z" fill="#7B70EE"/>
<path d="M357.742 624.748L359.089 619.918H349.879L348.465 624.748H357.742Z" fill="#7B70EE"/>
<path d="M346.178 624.748L347.59 619.918H336.022L334.543 624.748H346.178Z" fill="#7B70EE"/>
<path d="M459.277 626.942L459.882 632.13H470.756L469.874 626.942H459.277Z" fill="#7B70EE"/>
<path d="M394.094 624.748L395.049 619.918H384.501L383.416 624.748H394.094Z" fill="#7B70EE"/>
<path d="M381.163 624.748L382.249 619.918H373.34L372.126 624.748H381.163Z" fill="#7B70EE"/>
<path d="M369.86 624.748L371.074 619.918H361.369L360.022 624.748H369.86Z" fill="#7B70EE"/>
<path d="M587.531 626.942L589.748 632.13H601.184L598.825 626.942H587.531Z" fill="#7B70EE"/>
<path d="M292.159 624.748L294.225 619.918H283.119L280.923 624.748H292.159Z" fill="#7B70EE"/>
<path d="M305.807 624.748L307.741 619.918H296.613L294.547 624.748H305.807Z" fill="#7B70EE"/>
<path d="M332.247 624.748L333.724 619.918H323.242L321.504 624.748H332.247Z" fill="#7B70EE"/>
<path d="M601.238 626.942L603.598 632.13H615.009L612.509 626.942H601.238Z" fill="#7B70EE"/>
<path d="M319.17 624.748L320.908 619.918H310.108L308.174 624.748H319.17Z" fill="#7B70EE"/>
<path d="M547.173 626.942L548.762 632.13H559.904L558.037 626.942H547.173Z" fill="#7B70EE"/>
<path d="M392.981 641.708L391.957 646.894H403.247L404.131 641.708H392.981Z" fill="#7B70EE"/>
<path d="M343.509 641.708L341.992 646.894H351.566L353.012 641.708H343.509Z" fill="#7B70EE"/>
<path d="M379.606 641.708L378.44 646.894H389.718L390.743 641.708H379.606Z" fill="#7B70EE"/>
<path d="M355.294 641.708L353.848 646.894H364.285L365.59 641.708H355.294Z" fill="#7B70EE"/>
<path d="M367.856 641.708L366.55 646.894H376.187L377.353 641.708H367.856Z" fill="#7B70EE"/>
<path d="M408.877 626.942L407.992 632.13H418.869L419.472 626.942H408.877Z" fill="#7B70EE"/>
<path d="M407.024 624.748L407.847 619.918H397.287L396.333 624.748H407.024Z" fill="#7B70EE"/>
<path d="M394.44 634.324L393.415 639.512H404.506L405.39 634.324H394.44Z" fill="#7B70EE"/>
<path d="M573.822 626.942L575.901 632.13H587.36L585.141 626.942H573.822Z" fill="#7B70EE"/>
<path d="M418.009 639.512L418.613 634.324H407.618L406.734 639.512H418.009Z" fill="#7B70EE"/>
<path d="M560.369 626.942L562.238 632.13H573.534L571.456 626.942H560.369Z" fill="#7B70EE"/>
<path d="M275.153 632.13L277.512 626.942H266.24L263.74 632.13H275.153Z" fill="#7B70EE"/>
<path d="M524.903 646.894L523.456 641.708H513.16L514.464 646.894H524.903Z" fill="#7B70EE"/>
<path d="M357.351 634.324L355.907 639.512H366.143L367.449 634.324H357.351Z" fill="#7B70EE"/>
<path d="M544.205 624.748L542.729 619.918H531.161L532.571 624.748H544.205Z" fill="#7B70EE"/>
<path d="M570.575 624.748L568.643 619.918H557.84L559.58 624.748H570.575Z" fill="#7B70EE"/>
<path d="M557.246 624.748L555.506 619.918H545.027L546.503 624.748H557.246Z" fill="#7B70EE"/>
<path d="M495.334 624.748L494.25 619.918H483.702L484.654 624.748H495.334Z" fill="#7B70EE"/>
<path d="M482.418 624.748L481.463 619.918H470.904L471.727 624.748H482.418Z" fill="#7B70EE"/>
<path d="M584.203 624.748L582.137 619.918H571.009L572.943 624.748H584.203Z" fill="#7B70EE"/>
<path d="M518.729 624.748L517.382 619.918H507.674L508.89 624.748H518.729Z" fill="#7B70EE"/>
<path d="M506.624 624.748L505.409 619.918H496.501L497.585 624.748H506.624Z" fill="#7B70EE"/>
<path d="M512.2 646.894L510.895 641.708H501.398L502.561 646.894H512.2Z" fill="#7B70EE"/>
<path d="M593.674 646.894L591.456 641.708H579.738L581.817 646.894H593.674Z" fill="#7B70EE"/>
<path d="M565.221 646.894L563.351 641.708H551.69L553.277 646.894H565.221Z" fill="#7B70EE"/>
<path d="M622.123 646.894L619.621 641.708H607.953L610.312 646.894H622.123Z" fill="#7B70EE"/>
<path d="M607.9 646.894L605.541 641.708H593.845L596.062 646.894H607.9Z" fill="#7B70EE"/>
<path d="M579.448 646.894L577.37 641.708H565.687L567.553 646.894H579.448Z" fill="#7B70EE"/>
<path d="M500.31 646.894L499.147 641.708H488.008L489.033 646.894H500.31Z" fill="#7B70EE"/>
<path d="M597.827 624.748L595.632 619.918H584.525L586.591 624.748H597.827Z" fill="#7B70EE"/>
<path d="M617.447 632.13H627.977L625.044 626.942H614.947L617.447 632.13Z" fill="#7B70EE"/>
<path d="M536.76 646.894L535.242 641.708H525.736L527.183 646.894H536.76Z" fill="#7B70EE"/>
<path d="M611.452 624.748L609.123 619.918H598.044L600.239 624.748H611.452Z" fill="#7B70EE"/>
<path d="M550.981 646.894L549.394 641.708H537.531L539.047 646.894H550.981Z" fill="#7B70EE"/>
<path d="M623.805 624.748L621.073 619.918H611.562L613.89 624.748H623.805Z" fill="#7B70EE"/>
<path d="M530.284 624.748L528.874 619.918H519.662L521.009 624.748H530.284Z" fill="#7B70EE"/>
<path d="M459.389 646.894L458.785 641.708H447.4L447.61 646.894H459.389Z" fill="#7B70EE"/>
<path d="M290.452 634.324L289.294 637.031L288.233 639.512H299.893L301.969 634.324H290.452Z" fill="#7B70EE"/>
<path d="M472.017 639.512L471.133 634.324H460.136L460.741 639.512H472.017Z" fill="#7B70EE"/>
<path d="M285.843 639.512L288.064 634.324H276.567L275.333 637.037L274.209 639.512H285.843Z" fill="#7B70EE"/>
<path d="M382.923 626.942L381.758 632.13H392.636L393.66 626.942H382.923Z" fill="#7B70EE"/>
<path d="M395.901 626.942L394.874 632.13H405.765L406.649 626.942H395.901Z" fill="#7B70EE"/>
<path d="M331.613 634.324L330.027 639.512H341.861L343.377 634.324H331.613Z" fill="#7B70EE"/>
<path d="M304.336 634.324L302.257 639.512H313.854L315.722 634.324H304.336Z" fill="#7B70EE"/>
<path d="M345.666 634.324L344.15 639.512H353.625L355.071 634.324H345.666Z" fill="#7B70EE"/>
<path d="M447.104 634.324L447.313 639.512H458.53L457.924 634.324H447.104Z" fill="#7B70EE"/>
<path d="M318.057 634.324L316.19 639.512H327.73L329.317 634.324H318.057Z" fill="#7B70EE"/>
<path d="M456.811 624.748L456.248 619.918H446.522L446.717 624.748H456.811Z" fill="#7B70EE"/>
<path d="M486.794 646.894L485.769 641.708H474.619L475.502 646.894H486.794Z" fill="#7B70EE"/>
<path d="M434.427 619.918L434.231 624.748H444.518L444.323 619.918H434.427Z" fill="#7B70EE"/>
<path d="M434.143 626.942L433.934 632.13H444.815L444.606 626.942H434.143Z" fill="#7B70EE"/>
<path d="M457.67 632.13L457.065 626.942H446.805L447.014 632.13H457.67Z" fill="#7B70EE"/>
<path d="M469.499 624.748L468.676 619.918H458.459L459.023 624.748H469.499Z" fill="#7B70EE"/>
<path d="M433.845 634.324L433.635 639.512H445.114L444.905 634.324H433.845Z" fill="#7B70EE"/>
<path d="M433.548 641.708L433.338 646.894H445.411L445.202 641.708H433.548Z" fill="#7B70EE"/>
<path d="M432.034 624.748L432.228 619.918H422.501L421.939 624.748H432.034Z" fill="#7B70EE"/>
<path d="M409.251 624.748H419.728L420.289 619.918H410.076L409.251 624.748Z" fill="#7B70EE"/>
<path d="M485.335 639.512L484.309 634.324H473.359L474.245 639.512H485.335Z" fill="#7B70EE"/>
<path d="M381.264 634.324L380.099 639.512H391.177L392.202 634.324H381.264Z" fill="#7B70EE"/>
<path d="M241.181 649.088L238.615 653.626H250.946L253.132 649.088H241.181Z" fill="#7B70EE"/>
<path d="M534.601 639.512L533.084 634.324H523.678L525.126 639.512H534.601Z" fill="#7B70EE"/>
<path d="M527.795 649.088L529.061 653.626H538.729L537.401 649.088H527.795Z" fill="#7B70EE"/>
<path d="M510.342 639.512L509.036 634.324H499.739L500.903 639.512H510.342Z" fill="#7B70EE"/>
<path d="M431.14 646.894L431.349 641.708H419.965L419.362 646.894H431.14Z" fill="#7B70EE"/>
<path d="M568.344 649.088L569.977 653.626H582.145L580.329 649.088H568.344Z" fill="#7B70EE"/>
<path d="M604.543 639.512L602.184 634.324H590.687L592.905 639.512H604.543Z" fill="#7B70EE"/>
<path d="M582.696 649.088L584.511 653.626H596.554L594.613 649.088H582.696Z" fill="#7B70EE"/>
<path d="M406.359 641.708L405.475 646.894H417.15L417.754 641.708H406.359Z" fill="#7B70EE"/>
<path d="M245.354 641.708L242.422 646.894H254.19L256.689 641.708H245.354Z" fill="#7B70EE"/>
<path d="M461.854 649.088L462.384 653.626H474.423L473.65 649.088H461.854Z" fill="#7B70EE"/>
<path d="M284.138 649.088L282.196 653.626H294.238L296.055 649.088H284.138Z" fill="#7B70EE"/>
<path d="M431.052 649.088H419.106L418.579 653.626H430.868L431.052 649.088Z" fill="#7B70EE"/>
<path d="M590.515 639.512L588.3 634.324H576.781L578.858 639.512H590.515Z" fill="#7B70EE"/>
<path d="M255.571 649.088L253.383 653.626H265.377L267.441 649.088H255.571Z" fill="#7B70EE"/>
<path d="M486.547 634.324L487.574 639.512H498.652L497.488 634.324H486.547Z" fill="#7B70EE"/>
<path d="M539.688 649.088L541.016 653.626H553.041L551.651 649.088H539.688Z" fill="#7B70EE"/>
<path d="M489.467 649.088L490.362 653.626H501.823L500.806 649.088H489.467Z" fill="#7B70EE"/>
<path d="M548.722 639.512L547.135 634.324H535.373L536.888 639.512H548.722Z" fill="#7B70EE"/>
<path d="M562.563 639.512L560.693 634.324H549.434L551.02 639.512H562.563Z" fill="#7B70EE"/>
<path d="M475.878 649.088L476.651 653.626H488.123L487.228 649.088H475.878Z" fill="#7B70EE"/>
<path d="M553.949 649.088L555.339 653.626H567.643L566.01 649.088H553.949Z" fill="#7B70EE"/>
<path d="M253.705 626.942L250.771 632.13H261.303L263.803 626.942H253.705Z" fill="#7B70EE"/>
<path d="M611.31 649.088L613.373 653.626H625.366L623.178 649.088H611.31Z" fill="#7B70EE"/>
<path d="M257.676 619.918L254.946 624.748H264.86L267.187 619.918H257.676Z" fill="#7B70EE"/>
<path d="M576.491 639.512L574.415 634.324H563.027L564.897 639.512H576.491Z" fill="#7B70EE"/>
<path d="M402.1 653.626L402.872 649.088H298.421L296.602 653.626H402.1Z" fill="#7B70EE"/>
<path d="M503.057 649.088L504.074 653.626H513.895L512.751 649.088H503.057Z" fill="#7B70EE"/>
<path d="M421.08 632.13H431.736L431.945 626.942H421.683L421.08 632.13Z" fill="#7B70EE"/>
<path d="M633.395 641.708H622.06L627.805 653.626H640.136L633.395 641.708Z" fill="#7B70EE"/>
<path d="M621.004 639.512H632.154L629.218 634.324H618.504L621.004 639.512Z" fill="#7B70EE"/>
<path d="M618.566 639.512L616.066 634.324H604.595L606.955 639.512H618.566Z" fill="#7B70EE"/>
<path d="M416.367 653.626L416.895 649.088H405.1L404.328 653.626H416.367Z" fill="#7B70EE"/>
<path d="M433.251 649.088L433.067 653.626H460.174L459.643 649.088H433.251Z" fill="#7B70EE"/>
<path d="M597.003 649.088L598.942 653.626H610.962L608.898 649.088H597.003Z" fill="#7B70EE"/>
<path d="M522.846 639.512L521.398 634.324H511.302L512.607 639.512H522.846Z" fill="#7B70EE"/>
<path d="M515.017 649.088L516.161 653.626H526.781L525.515 649.088H515.017Z" fill="#7B70EE"/>
<path d="M249.529 634.324L246.597 639.512H257.746L260.246 634.324H249.529Z" fill="#7B70EE"/>
<path d="M278.51 624.748L280.707 619.918H269.626L267.299 624.748H278.51Z" fill="#7B70EE"/>
<path d="M269.853 649.088L267.789 653.626H279.807L281.748 649.088H269.853Z" fill="#7B70EE"/>
<path d="M431.438 639.512L431.648 634.324H420.824L420.221 639.512H431.438Z" fill="#7B70EE"/>
<path d="M472.392 641.708H460.997L461.6 646.894H473.276L472.392 641.708Z" fill="#7B70EE"/>
<path d="M508.186 692.284H370.565C369.979 692.284 369.444 692.014 369.097 691.544C368.749 691.075 368.65 690.484 368.821 689.924L377.57 661.505C377.808 660.735 378.509 660.22 379.314 660.22H499.439C500.244 660.22 500.944 660.736 501.182 661.505L509.931 689.924C510.104 690.484 510.003 691.075 509.655 691.544C509.306 692.014 508.771 692.284 508.186 692.284ZM379.312 661.845C379.224 661.845 379.15 661.901 379.123 661.986L370.376 690.405C370.35 690.482 370.377 690.544 370.404 690.58C370.431 690.616 370.48 690.659 370.563 690.659H508.186C508.269 690.659 508.317 690.616 508.344 690.58C508.371 690.544 508.398 690.482 508.375 690.405L499.626 661.984C499.601 661.903 499.523 661.845 499.437 661.845H379.312Z" fill="#7B70EE"/>
<path d="M506.207 402.808L356.713 426.374L500.451 498.254L649.326 476.124L506.207 402.808Z" fill="#1C1C84"/>
<path d="M356.713 426.374V429.792L500.559 504.927L649.326 479.397V476.124L500.451 498.254L356.713 426.374Z" fill="#2525AD"/>
<path d="M412.317 507.244L410.026 522.434C410.026 522.434 471.412 571.696 557.968 547.475L559.294 535.605C482.785 548.4 434.623 523.611 412.317 507.244Z" fill="#2525AD"/>
<path d="M594.571 587.231C586.56 580.88 580.886 571.513 578.182 561.657C577.982 560.927 577.006 561.191 576.893 561.818C576.711 561.575 576.345 561.54 576.052 561.693C575.911 561.186 575.085 560.954 574.768 561.567C569.275 572.211 573.518 584.234 577.194 594.762C577.482 595.59 578.399 595.144 578.109 594.314C575.232 586.073 572.153 576.846 573.903 568.165C572.927 579.141 576.587 590.383 583.29 599.093C583.774 599.722 584.525 598.967 584.039 598.334C577.954 590.426 574.809 580.391 575.133 570.424C575.321 574.35 575.929 578.265 577.186 581.968C579.112 587.64 582.33 593.054 585.552 598.076C586.026 598.816 586.773 598.055 586.299 597.317C583.204 592.489 580.533 587.303 578.6 581.883C577.772 579.561 577.228 577.127 576.88 574.659C578.732 582.643 582.589 590.149 588.135 596.242C588.718 596.883 589.491 596.314 588.9 595.664C582.823 588.988 579.171 580.439 577.664 571.619C579.893 579.879 584.007 587.692 589.44 594.402C589.99 595.081 590.562 594.345 590.008 593.659C584.704 587.109 581.197 579.449 579.007 571.39C581.957 579.703 585.786 587.722 592.549 593.634C593.212 594.213 593.935 593.542 593.275 592.964C588.63 588.903 585.568 583.418 583.072 577.917C585.781 582.727 589.037 587.222 592.815 591.285C593.413 591.927 593.917 590.905 593.327 590.269C590.002 586.696 587.452 582.738 584.981 578.553C587.526 581.96 590.483 585.064 593.833 587.719C594.517 588.264 595.261 587.778 594.571 587.231Z" fill="#F0C64B"/>
<path d="M580.491 472.202C577.368 468.472 573.152 466.02 568.834 463.927C560.245 459.765 550.705 457.956 541.396 456.196C528.238 453.708 514.777 451.404 503.837 443.116C503.412 442.794 503.001 442.956 502.756 443.284C502.734 443.304 502.72 443.329 502.702 443.35C502.695 443.363 502.686 443.37 502.679 443.383C502.416 443.707 502.344 444.173 502.734 444.546C510.752 452.207 521.472 455.999 532.024 458.669C542.687 461.367 553.57 463.214 563.776 467.45C564.093 467.581 564.41 467.712 564.727 467.844C564.789 467.869 565.125 468.024 565.129 468.022C565.651 468.276 566.168 468.537 566.689 468.794C568.599 469.741 570.46 470.722 572.209 471.952C574.305 473.426 576.246 475.231 577.593 477.426C579.067 479.825 579.578 482.516 579.524 485.306C579.468 488.21 578.93 491.097 578.458 493.955C577.97 496.917 577.53 499.885 577.075 502.85C576.133 508.981 575.256 515.115 574.593 521.282C573.136 534.858 572.738 548.706 575.18 562.198C575.362 563.198 577.042 562.979 576.967 561.956C576.018 549.152 577.062 536.314 578.86 523.629C579.755 517.317 580.839 511.029 581.943 504.749C582.978 498.853 584.347 492.911 584.832 486.939C585.271 481.522 584.016 476.412 580.491 472.202Z" fill="#F0C64B"/>
<path d="M574.503 563.162C574.658 563.087 574.815 563.018 574.973 562.952C575.069 562.914 575.065 562.916 574.959 562.955C575.006 562.939 575.051 562.921 575.097 562.907C575.168 562.883 575.238 562.86 575.308 562.838C575.648 562.734 575.996 562.658 576.349 562.608C576.434 562.595 576.52 562.581 576.605 562.575C576.367 562.588 576.644 562.575 576.691 562.572C576.862 562.563 577.035 562.559 577.206 562.563C577.377 562.566 577.548 562.575 577.72 562.592C577.804 562.601 577.891 562.61 577.975 562.62C578.024 562.628 578.073 562.633 578.121 562.642C578.002 562.62 577.995 562.619 578.098 562.638C578.348 562.685 578.568 562.698 578.802 562.574C578.995 562.471 579.182 562.262 579.24 562.046C579.355 561.62 579.148 560.999 578.647 560.905C576.938 560.586 575.213 560.788 573.644 561.557C573.215 561.767 573.026 562.374 573.271 562.788C573.529 563.225 574.046 563.387 574.503 563.162Z" fill="#D8A32B"/>
<path d="M574.321 561.387C574.476 561.312 574.633 561.243 574.791 561.177C574.887 561.139 574.883 561.141 574.777 561.18C574.824 561.164 574.869 561.148 574.915 561.132C574.986 561.108 575.056 561.085 575.126 561.063C575.467 560.959 575.814 560.882 576.167 560.833C576.252 560.82 576.338 560.806 576.423 560.801C576.185 560.813 576.462 560.801 576.509 560.797C576.68 560.788 576.853 560.784 577.024 560.788C577.196 560.792 577.368 560.801 577.538 560.819C577.624 560.828 577.709 560.837 577.793 560.847C577.842 560.855 577.891 560.862 577.939 560.869C577.82 560.847 577.811 560.846 577.916 560.865C578.166 560.912 578.386 560.925 578.62 560.801C578.813 560.698 579.002 560.487 579.058 560.273C579.173 559.847 578.966 559.224 578.465 559.132C576.754 558.813 575.031 559.015 573.462 559.784C573.035 559.994 572.844 560.603 573.089 561.015C573.347 561.45 573.862 561.612 574.321 561.387Z" fill="#D8A32B"/>
<path d="M563.789 499.86L564.531 493.948L500.559 504.927L420.025 462.861L418.299 472.801L498.95 513.383L563.789 499.86Z" fill="#0C0C5B"/>
<path d="M498.95 513.383L418.298 472.801L412.317 507.244C434.623 523.611 482.785 548.4 559.294 535.607L563.787 499.86L498.95 513.383Z" fill="#1C1C84"/>
<path d="M401.181 560.113C404.751 569.724 397.08 581.433 384.05 586.268C371.02 591.103 363.582 585.006 358.37 576.177C350.747 563.263 358.095 556.299 371.125 551.464C384.157 546.631 397.612 550.503 401.181 560.113Z" fill="#FFF6DC"/>
<path d="M271.063 454.268C271.063 454.268 303.399 487.551 329.897 547.289C329.897 547.289 342.464 579.719 350.709 587.827C350.709 587.827 344.036 580.311 354.226 568.312C361.711 559.499 372.627 554.099 384.184 553.69C390.64 553.462 397.387 554.812 401.226 560.237C401.226 560.237 358.1 509.461 329.924 465.65C318.666 448.146 313.337 433.684 310.998 422.628C310.998 422.628 308.874 420.131 304.644 418.043C289.087 410.364 270.762 420.7 268.048 437.828C267.794 439.426 267.636 441.129 267.594 442.94C267.594 442.94 267.371 450.531 271.063 454.268Z" fill="white"/>
<path d="M350.709 587.829C350.709 587.829 364.863 604.897 396.916 584.416C396.916 584.416 416.756 571.187 406.852 548.144C406.852 548.144 386.278 532.815 370.055 513.383C353.832 493.952 333.765 467.496 317.115 432.505L312.871 429.938C312.871 429.938 315.93 446.531 335.747 474.491C355.563 502.454 392.117 549.266 392.117 549.266L397.707 555.998C400.916 559.863 402.019 565.171 400.246 569.871C397.722 576.564 390.314 584.491 369.63 585.694L356.713 565.65C356.713 565.65 344.171 576.033 350.709 587.829Z" fill="#F4E7BD"/>
<path d="M382.017 526.378C382.017 526.378 344.868 487.661 318.826 426.374C318.826 426.374 314.129 418.913 311.142 415.469C311.142 415.469 333.78 485.409 382.017 526.378Z" fill="white"/>
<path d="M313.694 515.142C321.51 501.053 338.398 491.734 354.475 492.541C360.196 492.827 360.18 485.715 354.475 485.429C335.408 484.473 316.505 493.984 307.259 510.656C307.259 510.656 310.915 520.152 313.694 515.142Z" fill="#F0C64B"/>
<path d="M256.142 541.042H183.233C173.567 541.042 165.659 533.137 165.659 523.476V485.526C165.659 475.865 173.567 467.961 183.233 467.961H256.142C265.808 467.961 273.716 475.865 273.716 485.526V523.476C273.716 533.137 265.808 541.042 256.142 541.042Z" fill="#2525AD"/>
<path d="M208.09 504.502V491.119L219.688 497.809L231.285 504.502L219.688 511.194L208.09 517.885V504.502Z" fill="#D5CBFB"/>
<path d="M198.577 379.862C198.577 357.549 180.479 339.462 158.156 339.462C135.833 339.462 117.735 357.549 117.735 379.862C117.735 396.034 127.244 409.979 140.977 416.434V429.319H175.338V416.434C189.068 409.979 198.577 396.034 198.577 379.862Z" fill="white"/>
<path d="M176.443 435.977H139.869C138.036 435.977 136.537 434.48 136.537 432.647C136.537 430.815 138.036 429.317 139.869 429.317H176.445C178.277 429.317 179.777 430.815 179.777 432.647C179.775 434.48 178.277 435.977 176.443 435.977Z" fill="#F0C64B"/>
<path d="M158.156 454.874C150.776 454.874 144.793 448.894 144.793 441.518V439.309H171.521V441.518C171.52 448.894 165.537 454.874 158.156 454.874Z" fill="#F0C64B"/>
<path d="M176.443 442.637H139.869C138.036 442.637 136.537 441.138 136.537 439.307C136.537 437.477 138.036 435.977 139.869 435.977H176.445C178.277 435.977 179.777 437.475 179.777 439.307C179.775 441.14 178.277 442.637 176.443 442.637Z" fill="#D8A32B"/>
<path d="M161.832 429.319H159.938V373.193C159.938 372.212 159.138 371.413 158.156 371.413C157.173 371.413 156.373 372.212 156.373 373.193V429.319H154.479V373.193C154.479 371.166 156.128 369.519 158.156 369.519C160.184 369.519 161.832 371.166 161.832 373.193V429.319Z" fill="#F0C64B"/>
<path d="M94.6235 366.088L93.5141 371.87L110.409 375.106C110.636 373.133 110.982 371.198 111.439 369.305L94.6235 366.088Z" fill="#7B70EE"/>
<path d="M108.006 339.462L104.444 344.158L117.919 354.353C118.998 352.706 120.176 351.128 121.444 349.63L108.006 339.462Z" fill="#7B70EE"/>
<path d="M131.626 321.477L126.364 324.125L133.939 339.133C135.63 338.145 137.382 337.252 139.196 336.473L131.626 321.477Z" fill="#7B70EE"/>
<path d="M222.799 371.87L221.689 366.088L204.872 369.305C205.329 371.197 205.677 373.133 205.902 375.106L222.799 371.87Z" fill="#7B70EE"/>
<path d="M211.867 344.158L208.304 339.462L194.867 349.63C196.135 351.129 197.311 352.706 198.392 354.353L211.867 344.158Z" fill="#7B70EE"/>
<path d="M189.949 324.125L184.686 321.477L177.115 336.475C178.929 337.254 180.681 338.147 182.372 339.135L189.949 324.125Z" fill="#7B70EE"/>
<path d="M161.168 332.689L161.022 315.604L155.127 315.658L155.275 332.679C156.229 332.623 157.187 332.585 158.155 332.585C159.168 332.587 160.172 332.628 161.168 332.689Z" fill="#7B70EE"/>
<path d="M755.232 688.425H584.41V722.088H755.232V688.425Z" fill="#F0C64B"/>
<path d="M600.903 688.425H594.024V722.088H600.903V688.425Z" fill="#D8A32B"/>
<path d="M611.232 688.425H604.351V722.088H611.232V688.425Z" fill="#D8A32B"/>
<path d="M735.292 688.425H728.41V722.088H735.292V688.425Z" fill="#D8A32B"/>
<path d="M745.617 688.425H738.735V722.088H745.617V688.425Z" fill="#D8A32B"/>
<path d="M771.668 669.666V664.487C771.668 657.127 765.676 651.14 758.314 651.14H606.067V683.016H758.314C765.676 683.016 771.668 677.027 771.668 669.666Z" fill="white"/>
<path d="M758.312 645.531H605.069V648.336V651.14H758.312C765.676 651.14 771.666 657.129 771.666 664.488V669.666C771.666 677.027 765.674 683.014 758.312 683.014H605.069V685.818V688.623H758.312C768.77 688.623 777.278 680.119 777.278 669.666V664.488C777.278 654.035 768.77 645.531 758.312 645.531Z" fill="#2525AD"/>
<path d="M761.294 658.276H606.065V660.826H761.294V658.276Z" fill="#F5F5FF"/>
<path d="M761.294 665.958H606.065V668.509H761.294V665.958Z" fill="#F5F5FF"/>
<path d="M761.294 673.641H606.065V676.192H761.294V673.641Z" fill="#F5F5FF"/>
<path d="M593.015 628.66V623.997C593.015 617.369 598.409 611.978 605.04 611.978H742.13V640.679H605.04C598.411 640.679 593.015 635.288 593.015 628.66Z" fill="white"/>
<path d="M605.04 606.927H743.027V609.453V611.978H605.04C598.409 611.978 593.015 617.369 593.015 623.997V628.661C593.015 635.289 598.409 640.68 605.04 640.68H743.027V643.206V645.731H605.04C595.623 645.731 587.962 638.074 587.962 628.661V623.997C587.962 614.585 595.623 606.927 605.04 606.927Z" fill="#F0C64B"/>
<path d="M602.355 620.7H742.13V618.403H602.355V620.7Z" fill="#F5F5FF"/>
<path d="M602.355 627.617H742.13V625.32H602.355V627.617Z" fill="#F5F5FF"/>
<path d="M602.355 634.536H742.13V632.239H602.355V634.536Z" fill="#F5F5FF"/>
<path d="M317.569 249.011C324.022 249.011 329.252 254.079 329.252 260.331V262.054C331.602 268.662 333.032 277.262 333.032 286.693C333.032 296.123 331.601 304.722 329.252 311.332V313.055C329.252 319.306 324.022 324.375 317.569 324.375C309.029 324.375 302.106 307.505 302.106 286.693C302.104 265.881 309.029 249.011 317.569 249.011Z" fill="#F0C64B"/>
<path d="M307.36 287.172C307.36 299.902 308.347 310.223 309.562 310.223C310.78 310.223 311.765 299.904 311.765 287.172C311.765 274.442 310.778 264.12 309.562 264.12C308.347 264.122 307.36 274.442 307.36 287.172Z" fill="#D8A32B"/>
<path d="M345.61 269.618V271.128V303.217V304.728C344.814 313.415 336.82 321.466 326.104 324.375V303.217V271.128V249.97C336.82 252.879 344.814 260.93 345.61 269.618Z" fill="#7B70EE"/>
<path d="M326.104 328.408C327.849 328.408 329.276 327.025 329.276 325.335V249.011C329.276 247.32 327.847 245.936 326.104 245.936C324.359 245.936 322.933 247.319 322.933 249.011V325.335C322.931 327.025 324.359 328.408 326.104 328.408Z" fill="#2525AD"/>
<path d="M256.878 249.011C250.425 249.011 245.195 254.079 245.195 260.331V262.054C242.845 268.662 241.415 277.262 241.415 286.693C241.415 296.123 242.847 304.722 245.195 311.332V313.055C245.195 319.306 250.425 324.375 256.878 324.375C265.419 324.375 272.341 307.505 272.341 286.693C272.341 265.881 265.419 249.011 256.878 249.011Z" fill="#F0C64B"/>
<path d="M267.086 287.172C267.086 299.902 266.099 310.223 264.884 310.223C263.668 310.223 262.681 299.904 262.681 287.172C262.681 274.442 263.668 264.12 264.884 264.12C266.099 264.122 267.086 274.442 267.086 287.172Z" fill="#D8A32B"/>
<path d="M228.835 269.618V271.128V303.217V304.728C229.631 313.415 237.626 321.466 248.342 324.375V303.217V271.128V249.97C237.626 252.879 229.631 260.93 228.835 269.618Z" fill="#7B70EE"/>
<path d="M248.344 328.408C246.598 328.408 245.172 327.025 245.172 325.335V249.011C245.172 247.32 246.598 245.936 248.344 245.936C250.089 245.936 251.515 247.319 251.515 249.011V325.335C251.515 327.025 250.087 328.408 248.344 328.408Z" fill="#2525AD"/>
<path d="M326.403 202.561C320.065 197.332 311.754 194.022 303.871 192.089C295.778 190.104 287.324 189.596 279.048 190.555C276.55 190.845 274.063 191.236 271.603 191.754C269.919 192.109 268.07 192.386 266.508 193.126C264.876 193.9 263.277 194.753 261.664 195.567C257.294 197.768 252.923 199.969 248.554 202.171C246.815 203.047 247.02 205.591 248.554 206.52C252.594 208.968 257.221 209.281 261.795 208.552C265.012 208.039 267.949 206.845 271.002 205.789C276.486 203.89 282.411 202.961 288.203 202.934C293.366 202.911 298.603 203.683 303.374 205.722C310.432 208.761 318.875 210.782 325.893 206.52C327.168 205.742 327.693 203.625 326.403 202.561Z" fill="#7B70EE"/>
<path d="M288.314 187.755L288.325 187.699C287.956 187.699 287.592 187.72 287.223 187.726C286.856 187.72 286.492 187.699 286.121 187.699L286.132 187.755C249.745 188.914 220.598 218.741 220.598 255.39V296.464C220.598 301.025 224.297 304.724 228.862 304.724V264.23L228.684 263.177C225.9 246.755 229.46 229.664 239.485 216.359C244.167 210.146 250.51 204.294 259.097 200.065C259.2 200.015 259.301 199.966 259.403 199.916C276.9 191.391 297.548 191.391 315.044 199.916C315.147 199.966 315.248 200.015 315.351 200.065C323.99 204.319 330.356 210.216 335.046 216.469C345.012 229.763 348.541 246.811 345.762 263.188L345.585 264.232V304.726C350.149 304.726 353.85 301.029 353.85 296.466V255.392C353.848 218.741 324.701 188.914 288.314 187.755Z" fill="#2525AD"/>
<path d="M787.949 334.972H680.49V490.296H787.949V334.972Z" fill="#D5CBFB"/>
<path d="M776.349 357.754H692.088V361.192H776.349V357.754Z" fill="#7B70EE"/>
<path d="M776.349 373.535H692.088V376.973H776.349V373.535Z" fill="#7B70EE"/>
<path d="M776.349 389.318H692.088V392.756H776.349V389.318Z" fill="#7B70EE"/>
<path d="M776.349 405.099H692.088V408.537H776.349V405.099Z" fill="#7B70EE"/>
<path d="M776.349 420.88H692.088V424.318H776.349V420.88Z" fill="#7B70EE"/>
<path d="M776.349 436.663H692.088V440.101H776.349V436.663Z" fill="#7B70EE"/>
<path d="M776.351 474.999H692.09V475.946H776.351V474.999Z" fill="white"/>
<path d="M703.602 460.083C707.906 460.807 712.277 461.023 716.628 460.645C720.648 460.296 724.917 459.619 728.666 458.075C731.335 456.975 734.244 453.962 732.371 450.916C730.721 448.232 726.581 447.959 723.838 448.61C720.639 449.372 717.794 451.465 715.849 454.079C713.902 456.694 712.547 460.465 714.851 463.295C716.98 465.908 720.877 466.432 724.016 465.996C725.779 465.752 727.497 465.168 729.041 464.276C729.761 463.858 730.429 463.365 731.069 462.834C731.904 462.143 732.781 461.225 733.911 461.068C735.267 460.879 735.578 461.905 736.441 462.643C737.041 463.156 737.812 463.329 738.584 463.251C739.537 463.154 740.403 462.744 741.286 462.404C742.397 461.973 743.495 461.813 744.686 461.84C749.811 461.963 754.978 462.643 760.088 463.059C760.999 463.133 760.995 462.281 760.088 462.207C756.284 461.898 752.479 461.021 748.675 460.713C746.939 460.573 745.154 460.307 743.411 460.449C741.772 460.584 740.455 461.433 738.887 461.77C737.124 462.146 736.88 460.375 735.468 459.831C734.215 459.351 732.835 459.756 731.764 460.472C730.456 461.345 729.392 462.483 727.994 463.237C726.428 464.081 724.659 464.589 722.881 464.697C720 464.871 715.71 463.993 715.103 460.586C714.548 457.477 717.129 454.268 719.377 452.433C721.686 450.549 724.801 449.301 727.811 449.852C729.242 450.115 731.112 450.788 731.463 452.394C731.872 454.268 730.215 455.78 728.711 456.516C726.955 457.376 724.926 457.815 723.027 458.238C720.92 458.708 718.786 459.039 716.634 459.227C712.414 459.592 708.162 459.797 703.986 459.093C703.085 458.942 702.7 459.932 703.602 460.083Z" fill="#7B70EE"/>
<path d="M823.867 429.253L804.977 419.01L810.529 408.78C811.731 406.566 814.5 405.745 816.716 406.946L827.584 412.841C829.8 414.042 830.621 416.81 829.42 419.024L823.867 429.253Z" fill="#D5CBFB"/>
<path d="M822.534 431.631L803.644 421.386L749.081 521.892L767.971 532.137L822.534 431.631Z" fill="#2525AD"/>
<path d="M816.453 428.344L809.706 424.685L755.143 525.191L761.89 528.85L816.453 428.344Z" fill="#1C1C84"/>
<path d="M827.231 428.333L803.844 415.65L801.391 420.168L824.778 432.852L827.231 428.333Z" fill="#F0C64B"/>
<path d="M767.987 532.183L749.096 521.939L747.18 539.068L754.663 543.127L767.987 532.183Z" fill="#D5CBFB"/>
<path d="M754.663 543.128L747.18 539.069L745.923 550.304L754.663 543.128Z" fill="#2525AD"/>
<path d="M148.289 254.729L167.619 274.049" stroke="#7B70EE" stroke-width="2.1457" stroke-miterlimit="10"/>
<path d="M168.007 254.729L148.678 274.049" stroke="#7B70EE" stroke-width="2.1457" stroke-miterlimit="10"/>
<path d="M798.569 544.514L817.899 563.833" stroke="#7B70EE" stroke-width="2.1457" stroke-miterlimit="10"/>
<path d="M818.286 544.514L798.956 563.833" stroke="#7B70EE" stroke-width="2.1457" stroke-miterlimit="10"/>
<path d="M93.7464 476.808L110.865 493.915" stroke="#2525AD" stroke-width="1.9001" stroke-miterlimit="10"/>
<path d="M111.207 476.808L94.0902 493.915" stroke="#2525AD" stroke-width="1.9001" stroke-miterlimit="10"/>
<path d="M84.6767 334.972C84.6767 342.694 78.4129 348.954 70.6868 348.954C62.9606 348.954 56.6968 342.694 56.6968 334.972C56.6968 327.25 62.9606 320.99 70.6868 320.99C78.4129 320.988 84.6767 327.248 84.6767 334.972Z" stroke="#7B70EE" stroke-width="2.1457" stroke-miterlimit="10"/>
<path d="M632.154 324.205C639.88 324.205 646.144 317.945 646.144 310.223C646.144 302.501 639.88 296.241 632.154 296.241C624.428 296.241 618.164 302.501 618.164 310.223C618.164 317.945 624.428 324.205 632.154 324.205Z" stroke="#7B70EE" stroke-width="2.1457" stroke-miterlimit="10"/>
<path d="M695.977 290.725C695.977 292.687 694.385 294.278 692.422 294.278C690.459 294.278 688.867 292.687 688.867 290.725C688.867 288.763 690.459 287.172 692.422 287.172C694.385 287.172 695.977 288.763 695.977 290.725Z" stroke="#2525AD" stroke-width="1.9001" stroke-miterlimit="10"/>
<path d="M353.165 172.251C353.165 174.213 351.573 175.804 349.61 175.804C347.647 175.804 346.055 174.213 346.055 172.251C346.055 170.289 347.647 168.697 349.61 168.697C351.573 168.697 353.165 170.289 353.165 172.251Z" stroke="#2525AD" stroke-width="1.9001" stroke-miterlimit="10"/>
<path d="M126.322 623.164V631.566C115.027 632.202 106.025 641.562 106.025 653.009V660.159C106.025 671.888 115.473 681.437 127.158 681.642C131.401 704.651 151.561 722.088 175.809 722.088C203.141 722.088 225.297 699.943 225.297 672.626V623.164H126.322ZM112.979 660.157V653.007C112.979 645.393 118.863 639.136 126.322 638.515V672.624C126.322 673.304 126.346 673.978 126.373 674.651C118.89 674.055 112.979 667.789 112.979 660.157Z" fill="#2525AD"/>
<path d="M200.645 566.856C194.349 563.611 186.077 565.141 181.016 570.096C180.108 562.878 173.245 557.424 166.048 556.347C158.85 555.271 151.547 557.793 145.231 561.409C139.037 564.955 133.254 569.875 130.659 576.521C128.064 583.166 129.517 591.733 135.397 595.776C137.786 597.417 140.829 597.88 143.687 597.401C144.064 599.662 144.959 601.819 146.43 603.606C151.334 609.566 161.459 610.155 167.023 604.805C171.244 608.538 177.724 609.481 182.835 607.105C183.946 606.589 184.975 605.914 185.909 605.127C185.533 610.079 183.651 614.927 180.481 618.757C186.621 616.622 191.871 612.047 194.821 606.256C196.755 602.459 197.664 598.17 197.544 593.915C202.323 592.995 206.709 589.499 208.265 584.822C210.503 578.101 206.943 570.1 200.645 566.856Z" fill="#D5CBFB"/>
<path d="M422.741 269.944L422.732 269.942C422.476 269.92 422.209 269.908 421.939 269.908C416.673 269.908 412.389 274.19 412.389 279.453C412.389 284.716 416.673 288.998 421.939 288.998C422.209 288.998 422.472 288.987 422.719 288.966C427.641 288.561 431.49 284.383 431.49 279.453C431.49 274.525 427.647 270.347 422.741 269.944Z" fill="#2525AD"/>
<path d="M456.21 279.455C456.21 277.806 455.567 276.256 454.398 275.088C453.231 273.922 451.679 273.279 450.029 273.279H446.492L446.128 272.084C445.654 270.525 445.024 269.007 444.259 267.573L443.67 266.471L446.173 263.969C448.583 261.561 448.583 257.642 446.173 255.233C445.006 254.067 443.454 253.424 441.802 253.424C440.151 253.424 438.6 254.067 437.433 255.232L434.93 257.734L433.827 257.145C432.392 256.378 430.874 255.75 429.314 255.277L428.12 254.913V251.378C428.12 248.453 426.038 245.906 423.171 245.324C422.768 245.243 422.352 245.202 421.941 245.202C420.291 245.202 418.739 245.844 417.572 247.011C416.405 248.179 415.762 249.729 415.762 251.378V254.913L414.568 255.277C413.008 255.75 411.49 256.38 410.055 257.145L408.952 257.734L406.449 255.232C404.041 252.825 400.119 252.825 397.709 255.232C396.544 256.398 395.901 257.95 395.901 259.6C395.901 261.251 396.544 262.801 397.711 263.967L400.214 266.469L399.625 267.571C398.858 269.006 398.229 270.523 397.754 272.082L397.39 273.277H393.853C390.446 273.277 387.674 276.048 387.674 279.453C387.674 281.102 388.317 282.654 389.484 283.82C390.651 284.987 392.203 285.629 393.853 285.629H397.39L397.754 286.823C398.229 288.382 398.858 289.899 399.625 291.334L400.214 292.435L397.711 294.937C395.301 297.346 395.301 301.265 397.711 303.673C398.878 304.838 400.428 305.48 402.082 305.48C403.733 305.48 405.284 304.838 406.451 303.671L408.954 301.169L410.056 301.758C411.492 302.525 413.01 303.153 414.57 303.628L415.764 303.992V307.527C415.764 310.933 418.535 313.703 421.943 313.703C422.343 313.703 422.748 313.663 423.144 313.586L423.333 313.546C424.461 313.287 425.487 312.718 426.312 311.894C427.479 310.726 428.122 309.176 428.122 307.527V303.992L429.316 303.628C430.876 303.155 432.394 302.525 433.829 301.758L434.931 301.169L437.435 303.673C438.598 304.836 440.151 305.477 441.804 305.477C443.457 305.477 445.01 304.836 446.175 303.671C447.34 302.505 447.983 300.953 447.983 299.302C447.983 297.654 447.34 296.102 446.173 294.936L443.67 292.435L444.259 291.334C445.026 289.899 445.654 288.38 446.13 286.823L446.494 285.629H450.031C453.436 285.631 456.21 282.861 456.21 279.455ZM434.724 291.274C431.756 294.48 427.729 296.444 423.385 296.8C422.921 296.84 422.431 296.862 421.939 296.862C412.336 296.862 404.524 289.053 404.524 279.455C404.524 269.857 412.336 262.048 421.939 262.048C422.433 262.048 422.926 262.07 423.405 262.111C427.733 262.466 431.756 264.428 434.726 267.636C437.712 270.862 439.356 275.059 439.356 279.457C439.355 283.853 437.71 288.05 434.724 291.274Z" fill="#2525AD"/>
<path d="M687.181 548.38L687.177 548.386C687.103 548.537 687.035 548.695 686.97 548.859C685.735 552.065 687.339 555.679 690.549 556.912C693.756 558.147 697.373 556.541 698.606 553.336C698.669 553.172 698.723 553.01 698.768 552.853C699.676 549.761 698.032 546.438 695.028 545.282C692.025 544.127 688.577 545.488 687.181 548.38Z" fill="#2525AD"/>
<path d="M700.827 530.232C699.822 529.845 698.725 529.874 697.74 530.309C696.755 530.747 696 531.541 695.613 532.545L694.783 534.7L693.969 534.64C692.908 534.563 691.835 534.592 690.781 534.721L689.972 534.822L689.034 532.711C688.132 530.678 685.744 529.76 683.71 530.662C682.725 531.1 681.971 531.894 681.583 532.9C681.196 533.904 681.223 535 681.661 535.983L682.599 538.095L681.981 538.628C681.178 539.322 680.438 540.098 679.784 540.937L679.282 541.58L677.126 540.75C675.343 540.064 673.302 540.734 672.276 542.343C672.132 542.57 672.009 542.813 671.912 543.063C671.525 544.067 671.554 545.164 671.99 546.148C672.427 547.133 673.221 547.889 674.226 548.274L676.382 549.104L676.323 549.918C676.245 550.978 676.274 552.051 676.404 553.104L676.505 553.914L674.392 554.852C672.361 555.753 671.44 558.14 672.343 560.172C672.78 561.155 673.574 561.911 674.581 562.298C675.586 562.685 676.683 562.658 677.668 562.221L679.781 561.283L680.314 561.901C681.007 562.703 681.785 563.443 682.624 564.097L683.267 564.599L682.437 566.753C681.637 568.829 682.677 571.165 684.753 571.965C685.758 572.352 686.855 572.323 687.84 571.887C688.825 571.45 689.58 570.656 689.967 569.652L690.797 567.497L691.611 567.556C692.672 567.634 693.745 567.605 694.799 567.475L695.608 567.375L696.546 569.486C697.448 571.518 699.836 572.436 701.869 571.534C702.853 571.097 703.609 570.303 703.996 569.297C704.384 568.293 704.357 567.196 703.919 566.212L702.981 564.1L703.598 563.567C704.402 562.873 705.142 562.097 705.796 561.258L706.298 560.615L708.454 561.445C710.53 562.244 712.868 561.206 713.668 559.13C713.761 558.887 713.832 558.632 713.878 558.371L713.898 558.246C714.004 557.499 713.898 556.74 713.588 556.045C713.151 555.06 712.357 554.304 711.352 553.919L709.196 553.089L709.255 552.276C709.331 551.215 709.304 550.143 709.174 549.089L709.073 548.279L711.186 547.342C712.167 546.906 712.922 546.11 713.311 545.104C713.698 544.098 713.671 543.002 713.235 542.019C712.798 541.036 712.004 540.28 710.997 539.893C709.992 539.506 708.895 539.533 707.91 539.97L705.799 540.908L705.266 540.291C704.571 539.488 703.793 538.748 702.955 538.095L702.313 537.593L703.143 535.438C703.941 533.37 702.903 531.031 700.827 530.232ZM702.993 546.087C704.252 548.647 704.503 551.559 703.703 554.288C703.618 554.581 703.516 554.884 703.4 555.183C701.147 561.029 694.556 563.956 688.706 561.704C682.857 559.452 679.928 552.864 682.181 547.018C682.297 546.717 682.426 546.422 682.563 546.141C683.795 543.589 685.934 541.599 688.586 540.545C691.251 539.483 694.196 539.466 696.875 540.498C699.555 541.526 701.727 543.513 702.993 546.087Z" fill="#2525AD"/>
</svg>
